# xmcd
#
# Track frame offsets: 
#        150
#        20957
#        38370
#        53610
#        71715
#        86422
#        107302
#        130647
#        147855
#        168197
#
# Disc length: 2511 seconds
#
# Revision: 0
# Processed by: cddbd v1.5.2PL0 Copyright (c) Steve Scherf et al.
# Submitted via: ExactAudioCopy v0.95b4
#
DISCID=7509cd0a
DTITLE=Various Artist - Alligator Deluxe Editions Sampler
DYEAR=1999
DGENRE=Blues
TTITLE0=Hound Dog Taylor - Give Me Back My Wig
TTITLE1=Hound Dog Taylor - She's Gone
TTITLE2=Katie Webster - Two-Fisted Mama
TTITLE3=Katie Webster - Who's Making Love?
TTITLE4=William Clarke - Fishing Blues
TTITLE5=William Clarke - Going Down This Highway
TTITLE6=Albert Collins - Master Charge
TTITLE7=Lonnie Brooks - Hoodoo She Do
TTITLE8=Little Charlie and The Nightcats - My Nex Ex-Wife
TTITLE9=Kenny Neal - The Truth Hurts
EXTD=
EXTT0=
EXTT1=
EXTT2=
EXTT3=
EXTT4=
EXTT5=
EXTT6=
EXTT7=
EXTT8=
EXTT9=
PLAYORDER=
